<svg width="125" height="34" viewBox="0 0 125 34" fill="none" xmlns="http://www.w3.org/2000/svg">
<path d="M16.6453 12.076C16.0308 12.1472 15.3424 12.1837 14.5801 12.1856C13.8377 12.1637 12.9061 12.1097 11.7855 12.0236L11.1939 18.5341L16.1781 17.9571L15.945 20.3796L10.9608 20.9566L9.78685 33.2643L4.87094 33.8334L6.95987 11.9672C5.39797 12.2128 4.33479 12.9078 3.77034 14.0522C3.22864 15.194 3.1045 16.8701 3.39792 19.0806C3.45152 19.4844 3.52083 19.8325 3.60585 20.1248C3.71362 20.4144 3.85413 20.6895 4.02736 20.95C4.08416 21.0297 4.11538 21.0909 4.12103 21.1334C4.14661 21.152 4.16081 21.1719 4.16363 21.1932C2.88913 21.3407 1.92357 21.2044 1.26695 20.784C0.630266 20.3398 0.24139 19.5863 0.100323 18.5235C-0.235417 15.9943 0.510737 13.8684 2.33878 12.1461C4.18677 10.3999 6.95423 9.31337 10.6412 8.88652C10.846 8.86281 11.0978 8.84445 11.3964 8.83146C11.6951 8.81846 12.1901 8.80432 12.8813 8.78903C13.803 8.76866 14.5056 8.75206 14.9891 8.73924C15.4927 8.70252 15.9493 8.66045 16.3589 8.61303C16.9734 8.54188 17.5268 8.44545 18.019 8.32372C18.5112 8.20199 18.9651 8.05233 19.3806 7.87474C19.3635 7.91988 19.3048 8.26118 19.2045 8.89865C19.1043 9.53611 18.953 10.05 18.7506 10.4403C18.5482 10.8306 18.2691 11.1651 17.9132 11.4437C17.5773 11.6984 17.1546 11.9092 16.6453 12.076Z" fill="#C6E3E8"/>
<path d="M23.289 11.2098C23.3821 11.9112 23.188 12.5379 22.7067 13.09C22.2481 13.6395 21.6433 13.9577 20.8923 14.0446C20.1412 14.1316 19.4715 13.9609 18.8832 13.5326C18.2949 13.1044 17.9541 12.5396 17.861 11.8382C17.7679 11.1368 17.9507 10.5113 18.4092 9.96188C18.865 9.39116 19.4684 9.06233 20.2194 8.97538C20.9704 8.88843 21.6415 9.06971 22.2327 9.51922C22.8438 9.94484 23.1959 10.5084 23.289 11.2098ZM16.7802 28.7643C16.7435 28.488 16.7253 28.1772 16.7257 27.8318C16.7233 27.4652 16.7408 27.0747 16.7782 26.6603L17.7411 16.1575L22.657 15.5884L21.638 26.7128C21.6178 26.9093 21.6077 27.094 21.6075 27.2666C21.6045 27.4181 21.6143 27.5788 21.6368 27.7488C21.6933 28.1739 21.8366 28.4702 22.0668 28.6378C22.317 28.7815 22.6924 28.8244 23.1931 28.7664C23.8303 28.6926 24.3996 28.3677 24.9009 27.7918C25.3993 27.1945 25.73 26.4656 25.8931 25.6051L27.3269 25.4391C26.8554 27.4576 26.0714 29.0374 24.9751 30.1787C23.8787 31.3199 22.5339 31.9828 20.9408 32.1672C19.8029 32.299 18.8602 32.0736 18.1127 31.4911C17.3852 30.8847 16.941 29.9758 16.7802 28.7643Z" fill="#C6E3E8"/>
<path d="M34.2131 26.9726C34.1623 26.59 34.1444 26.1066 34.1592 25.5221C34.1969 24.9351 34.2918 23.9961 34.4439 22.7052C34.6017 21.4568 34.6909 20.5616 34.7114 20.0197C34.7319 19.4778 34.7182 19.0262 34.6702 18.6649C34.5997 18.1335 34.4436 17.7415 34.2021 17.489C33.9606 17.2364 33.635 17.1338 33.2254 17.1812C32.6792 17.2444 32.2024 17.5694 31.795 18.1561C31.4075 18.7189 31.1265 19.4744 30.9519 20.4226L29.989 30.9255L25.0731 31.4946L26.5757 15.1347L31.4917 14.5656L31.3362 16.2669C31.8262 15.6059 32.3814 15.0884 33.0019 14.7144C33.6224 14.3405 34.3196 14.1087 35.0934 14.0191C36.2996 13.8794 37.2736 14.0796 38.0155 14.6196C38.7573 15.1596 39.2058 16.014 39.361 17.183C39.4259 17.6719 39.4352 18.2643 39.3889 18.9603C39.3626 19.6323 39.259 20.6802 39.0783 22.1039C38.9263 23.2222 38.8344 24.0097 38.8026 24.4666C38.7708 24.9235 38.7747 25.3007 38.8142 25.5983C38.8734 26.0446 39.0324 26.3715 39.291 26.579C39.5468 26.7652 39.9023 26.8319 40.3575 26.7792C40.9264 26.7134 41.3918 26.476 41.7535 26.0673C42.1152 25.6585 42.4816 24.85 42.8527 23.6416L44.2865 23.4756C43.8206 25.5366 43.1291 27.1166 42.2119 28.2155C41.3176 29.3118 40.1535 29.9429 38.7197 30.1089C37.4452 30.2565 36.4128 30.0523 35.6227 29.4963C34.8297 28.9191 34.3598 28.0779 34.2131 26.9726Z" fill="#C6E3E8"/>
<path d="M47.5663 23.4196C47.6764 24.2486 47.8848 24.8611 48.1915 25.2572C48.4955 25.632 48.9661 25.7826 49.6033 25.7088C50.1723 25.6429 50.6975 25.334 51.1788 24.7819C51.6573 24.2085 51.9482 23.5274 52.0514 22.7385L52.0303 22.5791L52.7339 15.0845C52.6205 14.7523 52.4259 14.5051 52.1502 14.3428C51.8944 14.1566 51.573 14.0859 51.1861 14.1307C49.9344 14.2756 48.949 15.3824 48.2299 17.4511C47.5336 19.5172 47.3124 21.5067 47.5663 23.4196ZM52.8465 13.5824L52.8634 13.7099L53.5628 6.18339L58.5307 4.96081L56.89 22.6316C56.8699 22.8281 56.8598 23.0127 56.8596 23.1854C56.8566 23.3368 56.8664 23.4975 56.8889 23.6676C56.9453 24.0927 57.0887 24.389 57.3189 24.5566C57.5691 24.7003 57.9445 24.7431 58.4452 24.6852C59.0369 24.6167 59.5393 24.3103 59.9523 23.7661C60.3654 23.2219 60.6606 22.4864 60.838 21.5594L62.2718 21.3934C61.8173 23.3668 61.0846 24.8975 60.0737 25.9857C59.0854 27.0713 57.7834 27.7076 56.1675 27.8947C55.2344 28.0027 54.4409 27.8572 53.7871 27.4581C53.1533 27.0351 52.7102 26.3958 52.458 25.5402C51.905 26.5969 51.2399 27.4185 50.4627 28.0048C49.6855 28.5912 48.7963 28.9423 47.7949 29.0583C46.3838 29.2216 45.2094 28.9044 44.2716 28.1065C43.3565 27.3061 42.7904 26.0875 42.5731 24.4509C42.4151 23.2607 42.4435 21.9949 42.6583 20.6536C42.8731 19.3122 43.2514 18.0707 43.7931 16.9289C44.4687 15.5774 45.3204 14.5076 46.3481 13.7196C47.373 12.9104 48.5454 12.4293 49.8655 12.2765C50.7531 12.1738 51.4556 12.2435 51.973 12.4857C52.4876 12.7067 52.7788 13.0723 52.8465 13.5824Z" fill="#C6E3E8"/>
<path d="M65.919 10.9035C65.7779 9.8408 66.0124 8.7346 66.6224 7.58492C67.2551 6.4326 68.1978 5.35231 69.4505 4.34403C70.5181 3.50825 71.6865 2.82266 72.9557 2.28726C74.2449 1.72796 75.5267 1.37454 76.8012 1.22698L78.1668 1.06889L76.0507 24.2979C75.8059 27.1534 75.0483 29.2805 73.7781 30.6793C72.508 32.078 70.6212 32.9223 68.1177 33.2122C66.5473 33.394 65.2534 33.1337 64.2358 32.4315C63.241 31.7265 62.6519 30.6833 62.4685 29.3018C62.3077 28.0902 62.5606 27.0359 63.2272 26.1386C63.8909 25.2201 64.8373 24.6897 66.0663 24.5474C67.2953 24.4051 68.1841 24.4857 68.7327 24.789C69.2786 25.0711 69.5995 25.5735 69.6954 26.2962C69.7179 26.4662 69.7206 26.6601 69.7033 26.8779C69.7116 27.1144 69.6971 27.3535 69.6598 27.5952C69.2334 27.3424 68.8638 27.1694 68.551 27.0761C68.2382 26.9828 67.8884 26.9586 67.5015 27.0034C66.796 27.085 66.2452 27.3754 65.8493 27.8745C65.4761 28.3709 65.3347 28.9591 65.425 29.6393C65.5153 30.3194 65.8034 30.8364 66.2894 31.1902C66.7982 31.5413 67.3826 31.6787 68.0426 31.6023C68.9302 31.4995 69.5621 31.1242 69.9383 30.4764C70.3401 29.8472 70.6157 28.7902 70.7652 27.3053L73.1033 3.92114C71.6347 4.69544 70.5598 5.73709 69.8785 7.04609C69.2172 8.3312 68.9965 9.80269 69.2166 11.4605C69.2702 11.8644 69.3395 12.2124 69.4245 12.5047C69.5323 12.7944 69.6728 13.0695 69.846 13.33C69.9028 13.4097 69.9341 13.4709 69.9397 13.5134C69.9653 13.532 69.9795 13.5519 69.9823 13.5732C68.7078 13.7207 67.7423 13.5843 67.0856 13.164C66.449 12.7197 66.0601 11.9663 65.919 10.9035Z" fill="#C6E3E8"/>
<path d="M78.7818 20.2913C78.621 19.0798 78.6552 17.7702 78.8843 16.3625C79.1361 14.9521 79.5556 13.6734 80.1429 12.5264C80.8185 11.1748 81.7057 10.1118 82.8045 9.33711C83.9005 8.54121 85.1768 8.05894 86.6334 7.89031C88.0899 7.72168 89.2388 8.0203 90.0799 8.78616C90.9211 9.55203 91.4545 10.7852 91.6802 12.4855C91.7285 12.5015 91.7769 12.5175 91.8252 12.5335C91.8935 12.5256 91.9731 12.5163 92.0642 12.5058C92.7697 12.4241 93.5878 12.146 94.5185 11.6713C95.4491 11.1967 96.2988 10.6344 97.0676 9.98424L97.4891 10.8095C96.9365 11.5209 96.1564 12.1723 95.1488 12.7638C94.1639 13.3526 93.047 13.8164 91.7978 14.1552C91.9056 17.0562 91.3256 19.4757 90.0576 21.4138C88.7897 23.3518 87.0747 24.446 84.9126 24.6963C83.1374 24.9018 81.7269 24.6335 80.6809 23.8913C79.6349 23.1492 79.0019 21.9492 78.7818 20.2913ZM87.1646 9.80349C86.0722 9.92996 85.1735 11.0807 84.4686 13.2557C83.7863 15.428 83.568 17.4388 83.8134 19.288C83.946 20.2869 84.1501 20.9539 84.4257 21.2889C84.724 21.6212 85.2145 21.7479 85.8973 21.6688C86.7394 21.5713 87.4513 20.8415 88.033 19.4792C88.6376 18.1144 88.9522 16.4809 88.9771 14.5789C88.65 14.552 88.3927 14.4416 88.2051 14.2475C88.0376 14.0295 87.9284 13.7292 87.8776 13.3466C87.824 12.9428 87.8685 12.5815 88.011 12.2629C88.1536 11.9442 88.3857 11.6908 88.7074 11.5024C88.5716 10.8276 88.3829 10.3638 88.1414 10.1112C87.9226 9.85601 87.597 9.75342 87.1646 9.80349Z" fill="#C6E3E8"/>
<path d="M100.046 23.009C98.5214 23.1855 97.2914 22.9718 96.3562 22.3679C95.4409 21.7401 94.8973 20.7779 94.7252 19.4814C94.6857 19.1838 94.6689 18.8836 94.675 18.5808C94.681 18.278 94.697 17.9632 94.7229 17.6365L96.2555 1.24074L101.223 0.0181674L100.537 7.3813C101.041 6.99925 101.489 6.72074 101.882 6.54579C102.294 6.34694 102.74 6.21986 103.218 6.16452C104.56 6.00907 105.623 6.35011 106.404 7.18764C107.205 8.00129 107.727 9.32206 107.97 11.15C108.136 12.404 108.102 13.7136 107.867 15.0788C107.633 16.444 107.216 17.6576 106.617 18.7197C105.928 19.9649 105.031 20.9536 103.926 21.6857C102.819 22.3966 101.526 22.8377 100.046 23.009ZM99.5435 18.438C99.6084 18.9269 99.8057 19.2817 100.135 19.5025C100.485 19.6994 100.956 19.7636 101.547 19.6951C102.572 19.5765 103.382 18.6303 103.978 16.8563C104.575 15.0823 104.75 13.2708 104.505 11.4216C104.386 10.5289 104.118 9.8154 103.701 9.28104C103.306 8.74406 102.835 8.50719 102.289 8.57042C101.925 8.61258 101.545 8.71051 101.15 8.86421C100.754 9.01791 100.488 9.189 100.351 9.37748L99.5486 17.6929C99.5427 17.823 99.5369 17.9532 99.5311 18.0833C99.5252 18.2135 99.5294 18.3317 99.5435 18.438Z" fill="#C6E3E8"/>
<path d="M120.662 15.0219C120.696 15.2769 120.714 15.5014 120.717 15.6954C120.719 15.8893 120.709 16.0739 120.686 16.2492C121.108 15.9415 121.516 15.6244 121.912 15.298C122.308 14.9717 122.648 14.6625 122.933 14.3706L124.366 14.2046C123.762 15.0514 123.072 15.8543 122.294 16.6133C121.537 17.3485 120.663 18.0755 119.672 18.7945C119.14 19.482 118.418 20.0511 117.507 20.5019C116.594 20.9314 115.613 21.2067 114.566 21.3279C113.042 21.5045 111.773 21.2628 110.761 20.6031C109.769 19.9194 109.196 18.9931 109.041 17.8241C108.953 17.1652 109.045 16.5503 109.316 15.9794C109.584 15.3873 109.964 14.944 110.456 14.6496C111.058 13.2635 111.592 11.7989 112.057 10.2559C112.542 8.68907 112.991 6.84589 113.403 4.72641L118.371 3.50383C118.65 5.09002 118.923 6.53674 119.189 7.84398C119.455 9.15123 119.759 10.5727 120.102 12.1085C120.289 12.9933 120.417 13.615 120.488 13.9737C120.559 14.3324 120.617 14.6818 120.662 15.0219ZM114.065 8.14594C113.884 9.05163 113.642 10.0077 113.336 11.0143C113.051 11.9969 112.638 13.156 112.099 14.4918C112.364 14.569 112.577 14.6954 112.739 14.8709C112.901 15.0464 112.999 15.2617 113.033 15.5167C113.086 15.9206 112.986 16.299 112.733 16.6521C112.479 17.0052 112.147 17.2054 111.738 17.2528C111.51 17.2792 111.313 17.2697 111.145 17.2244C110.974 17.1578 110.846 17.0647 110.761 16.9451C110.865 17.7315 111.101 18.2869 111.468 18.6114C111.854 18.9119 112.411 19.02 113.14 18.9357C114.073 18.8277 114.767 18.4883 115.223 17.9176C115.679 17.3469 115.843 16.5833 115.716 15.6269C115.677 15.3293 115.626 15.033 115.564 14.7381C115.498 14.4219 115.384 13.9065 115.22 13.1917C114.973 12.2059 114.765 11.3344 114.595 10.5771C114.425 9.81987 114.249 9.00947 114.065 8.14594Z" fill="#C6E3E8"/>
</svg>
