<svg width="18" height="16" viewBox="0 0 18 16" fill="none" xmlns="http://www.w3.org/2000/svg">
<path d="M8.8872 3.8978C6.53665 3.8978 4.64068 5.72933 4.64068 8C4.64068 10.2707 6.53665 12.1022 8.8872 12.1022C11.2378 12.1022 13.1337 10.2707 13.1337 8C13.1337 5.72933 11.2378 3.8978 8.8872 3.8978ZM8.8872 10.667C7.36821 10.667 6.12641 9.47094 6.12641 8C6.12641 6.52906 7.36452 5.33304 8.8872 5.33304C10.4099 5.33304 11.648 6.52906 11.648 8C11.648 9.47094 10.4062 10.667 8.8872 10.667ZM14.2979 3.73C14.2979 4.26197 13.8544 4.68682 13.3074 4.68682C12.7568 4.68682 12.3169 4.2584 12.3169 3.73C12.3169 3.20161 12.7604 2.77318 13.3074 2.77318C13.8544 2.77318 14.2979 3.20161 14.2979 3.73ZM17.1105 4.7011C17.0476 3.41939 16.7446 2.28406 15.7726 1.34866C14.8042 0.413254 13.629 0.120495 12.3022 0.0562312C10.9347 -0.0187437 6.83601 -0.0187437 5.46855 0.0562312C4.14544 0.116925 2.97016 0.409684 1.99815 1.34509C1.02615 2.28049 0.726785 3.41582 0.66026 4.69753C0.582648 6.01852 0.582648 9.97791 0.66026 11.2989C0.72309 12.5806 1.02615 13.7159 1.99815 14.6513C2.97016 15.5867 4.14174 15.8795 5.46855 15.9438C6.83601 16.0187 10.9347 16.0187 12.3022 15.9438C13.629 15.8831 14.8042 15.5903 15.7726 14.6513C16.7409 13.7159 17.0439 12.5806 17.1105 11.2989C17.1881 9.97791 17.1881 6.02209 17.1105 4.7011ZM15.3438 12.7163C15.0556 13.416 14.4975 13.9551 13.7694 14.2372C12.6791 14.6549 10.092 14.5585 8.8872 14.5585C7.68236 14.5585 5.09157 14.6513 4.005 14.2372C3.28061 13.9587 2.72254 13.4196 2.43057 12.7163C1.99815 11.6631 2.09794 9.1639 2.09794 8C2.09794 6.8361 2.00185 4.33337 2.43057 3.28372C2.71884 2.58396 3.27692 2.04485 4.005 1.7628C5.09527 1.34509 7.68236 1.44148 8.8872 1.44148C10.092 1.44148 12.6828 1.34866 13.7694 1.7628C14.4938 2.04128 15.0519 2.58039 15.3438 3.28372C15.7763 4.33694 15.6765 6.8361 15.6765 8C15.6765 9.1639 15.7763 11.6666 15.3438 12.7163Z" fill="white"/>
</svg>
