<svg width="23" height="24" viewBox="0 0 23 24" fill="none" xmlns="http://www.w3.org/2000/svg">
<path d="M10.3821 23.1112C10.8196 23.1011 11.2394 22.9366 11.5672 22.6469C11.8951 22.3571 12.11 21.9607 12.1738 21.5278H8.521C8.5866 21.9725 8.8115 22.3782 9.15385 22.6694C9.49619 22.9607 9.93268 23.1177 10.3821 23.1112Z" fill="white"/>
<path d="M20.4583 18.632C19.7887 18.035 19.2024 17.3506 18.7153 16.5972C18.1835 15.5573 17.8648 14.4217 17.7778 13.257V9.8264C17.775 9.4097 17.7378 8.99394 17.6667 8.58335C17.1201 8.47409 16.5948 8.2771 16.1111 8.00002C16.2955 8.59366 16.3891 9.21174 16.3889 9.83335V13.2639C16.474 14.6848 16.8649 16.0705 17.5347 17.3264C18.0142 18.0861 18.583 18.7856 19.2292 19.4097H1.44444C2.09056 18.7856 2.65944 18.0861 3.13889 17.3264C3.80876 16.0705 4.1996 14.6848 4.28472 13.2639V9.8264C4.28107 9.02271 4.43598 8.2262 4.74058 7.48246C5.04519 6.73872 5.49351 6.06237 6.05987 5.49214C6.62623 4.92191 7.29951 4.46899 8.04116 4.15933C8.7828 3.84966 9.57825 3.68933 10.3819 3.68751C11.5582 3.68846 12.708 4.0363 13.6875 4.68751C13.5795 4.29098 13.5189 3.88304 13.5069 3.47224V3.03474C12.7818 2.67804 12.0029 2.44341 11.2014 2.34029V1.46529C11.2014 1.21941 11.1037 0.983606 10.9299 0.809745C10.756 0.635883 10.5202 0.538208 10.2743 0.538208C10.0284 0.538208 9.79262 0.635883 9.61876 0.809745C9.4449 0.983606 9.34722 1.21941 9.34722 1.46529V2.37501C7.55258 2.62818 5.91012 3.52206 4.72307 4.89163C3.53602 6.26121 2.88453 8.014 2.88889 9.8264V13.257C2.80191 14.4217 2.48318 15.5573 1.95139 16.5972C1.47283 17.3489 0.895969 18.0332 0.236111 18.632C0.162036 18.697 0.102668 18.7771 0.0619565 18.8669C0.0212455 18.9567 0.000124858 19.0542 0 19.1528V20.0972C0 20.2814 0.0731644 20.4581 0.203398 20.5883C0.333632 20.7185 0.510266 20.7917 0.694445 20.7917H20C20.1842 20.7917 20.3608 20.7185 20.491 20.5883C20.6213 20.4581 20.6944 20.2814 20.6944 20.0972V19.1528C20.6943 19.0542 20.6732 18.9567 20.6325 18.8669C20.5918 18.7771 20.5324 18.697 20.4583 18.632Z" fill="white"/>
<path d="M18.7154 6.94444C20.633 6.94444 22.1876 5.38988 22.1876 3.47222C22.1876 1.55457 20.633 0 18.7154 0C16.7977 0 15.2432 1.55457 15.2432 3.47222C15.2432 5.38988 16.7977 6.94444 18.7154 6.94444Z" fill="#EA5566"/>
</svg>
