<svg width="18" height="16" viewBox="0 0 18 16" fill="none" xmlns="http://www.w3.org/2000/svg">
<path fill-rule="evenodd" clip-rule="evenodd" d="M8.43685 4.65914L8.39992 4.0075C8.28921 2.31866 9.26091 0.776073 10.7985 0.177712C11.3642 -0.0350808 12.3236 -0.0616799 12.951 0.124513C13.1969 0.204311 13.6644 0.470223 13.9964 0.709614L14.5992 1.14846L15.2633 0.922407C15.6324 0.802672 16.1244 0.603218 16.3457 0.470223C16.5549 0.350566 16.7393 0.284029 16.7393 0.323967C16.7393 0.55002 16.2843 1.32131 15.903 1.74682C15.3864 2.34526 15.534 2.39846 16.5795 1.99947C17.2068 1.77342 17.219 1.77342 17.0961 2.02607C17.0222 2.15907 16.6409 2.62451 16.235 3.05002C15.5462 3.78145 15.5094 3.86125 15.5094 4.47295C15.5094 5.4171 15.0912 7.38519 14.6729 8.46233C13.898 10.4836 12.2375 12.5714 10.577 13.6219C8.24005 15.0981 5.12809 15.4704 2.5082 14.606C1.6349 14.3134 0.134277 13.5687 0.134277 13.4358C0.134277 13.3959 0.589352 13.3427 1.1429 13.3294C2.29909 13.3028 3.45528 12.957 4.43928 12.3453L5.10354 11.9198L4.34088 11.6406C3.25848 11.2416 2.28678 10.324 2.04082 9.45968C1.96696 9.18043 1.99158 9.16709 2.68038 9.16709L3.3938 9.15383L2.79109 8.84798C2.07767 8.46233 1.42579 7.8107 1.10597 7.1458C0.872244 6.6671 0.577116 5.45696 0.663207 5.3639C0.687752 5.32404 0.946099 5.40376 1.2413 5.51015C2.08998 5.8426 2.20069 5.76281 1.70869 5.2043C0.786153 4.1937 0.50326 2.69097 0.946099 1.26812L1.15521 0.629816L1.96696 1.49417C3.62753 3.23621 5.58323 4.27349 7.82183 4.57934L8.43685 4.65914Z" fill="white"/>
</svg>
