<svg width="19" height="25" viewBox="0 0 19 25" fill="none" xmlns="http://www.w3.org/2000/svg">
<path d="M9.29184 5.87744C8.61552 5.87744 7.95439 6.07799 7.39206 6.45374C6.82972 6.82948 6.39143 7.36354 6.13261 7.98837C5.8738 8.61321 5.80608 9.30076 5.93802 9.96408C6.06996 10.6274 6.39564 11.2367 6.87387 11.7149C7.3521 12.1932 7.9614 12.5188 8.62473 12.6508C9.28805 12.7827 9.9756 12.715 10.6004 12.4562C11.2253 12.1974 11.7593 11.7591 12.1351 11.1968C12.5108 10.6344 12.7114 9.97329 12.7114 9.29697C12.7103 8.39037 12.3497 7.5212 11.7087 6.88014C11.0676 6.23908 10.1984 5.87847 9.29184 5.87744ZM9.29184 11.0067C8.95368 11.0067 8.62312 10.9065 8.34195 10.7186C8.06078 10.5307 7.84163 10.2637 7.71223 9.95127C7.58282 9.63885 7.54896 9.29507 7.61493 8.96341C7.6809 8.63175 7.84374 8.3271 8.08286 8.08798C8.32197 7.84887 8.62662 7.68603 8.95828 7.62006C9.28995 7.55409 9.63372 7.58795 9.94614 7.71735C10.2586 7.84676 10.5256 8.06591 10.7135 8.34707C10.9013 8.62824 11.0016 8.95881 11.0016 9.29697C11.0011 9.75026 10.8208 10.1848 10.5002 10.5054C10.1797 10.8259 9.74514 11.0062 9.29184 11.0067Z" fill="#62BECB"/>
<path d="M15.8628 2.72094C14.2381 1.09668 12.0694 0.131811 9.77514 0.0125409C7.48091 -0.106729 5.22382 0.628058 3.43949 2.07509C1.65516 3.52212 0.470078 5.57881 0.112978 7.84821C-0.244123 10.1176 0.252067 12.4389 1.50578 14.3639L7.96586 24.2813C8.10962 24.5019 8.30618 24.6833 8.53773 24.8088C8.76928 24.9343 9.02849 25 9.29186 25C9.55523 25 9.81444 24.9343 10.046 24.8088C10.2775 24.6833 10.4741 24.5019 10.6179 24.2813L17.0781 14.3639C18.2415 12.5782 18.7556 10.4468 18.5343 8.32701C18.313 6.20725 17.3698 4.22798 15.8628 2.72094ZM15.6456 13.4307L9.29189 23.1843L2.93814 13.4307C0.993282 10.4451 1.41041 6.44956 3.92996 3.9299C4.63409 3.22575 5.47002 2.66718 6.39003 2.2861C7.31003 1.90501 8.29608 1.70887 9.29189 1.70887C10.2877 1.70887 11.2737 1.90501 12.1937 2.2861C13.1138 2.66718 13.9497 3.22575 14.6538 3.9299C17.1734 6.44956 17.5904 10.4451 15.6456 13.4307Z" fill="#62BECB"/>
</svg>
