<svg width="127" height="56" viewBox="0 0 127 56" fill="none" xmlns="http://www.w3.org/2000/svg">
<path d="M24.6799 42.9848C24.2656 42.9848 23.9381 43.1006 23.6972 43.3322C23.4564 43.5541 23.283 43.9062 23.177 44.3886L23.0469 44.9964H25.2724L25.0412 46.1397H22.8591L21.544 52.6666H20.1567L21.4718 46.1397H20.1567L20.3735 44.9964H21.703L21.8475 44.2728C22.0016 43.4914 22.3147 42.8932 22.7868 42.4783C23.2685 42.0538 23.8995 41.8416 24.6799 41.8416C24.9978 41.8416 25.2965 41.885 25.5759 41.9718C25.8649 42.049 26.1009 42.1648 26.2839 42.3191L25.7059 43.3466C25.4362 43.1054 25.0942 42.9848 24.6799 42.9848Z" fill="white"/>
<path d="M28.5343 52.7534C27.8118 52.7534 27.1808 52.6183 26.6413 52.3482C26.1018 52.0684 25.6827 51.6776 25.384 51.176C25.0854 50.6743 24.9361 50.0954 24.9361 49.4393C24.9361 48.5807 25.1287 47.8088 25.5141 47.1238C25.8995 46.4388 26.4341 45.9033 27.1182 45.5174C27.8022 45.1219 28.5729 44.9241 29.4303 44.9241C30.1529 44.9241 30.7839 45.0591 31.3234 45.3293C31.8629 45.5994 32.2772 45.9854 32.5662 46.487C32.8648 46.9791 33.0141 47.558 33.0141 48.2237C33.0141 49.0823 32.8215 49.859 32.4361 50.5537C32.0508 51.2387 31.5161 51.779 30.8321 52.1745C30.1577 52.5604 29.3918 52.7534 28.5343 52.7534ZM28.6211 51.5378C29.1895 51.5378 29.7001 51.4027 30.1529 51.1325C30.6153 50.8527 30.9717 50.4668 31.2222 49.9748C31.4823 49.4827 31.6124 48.9232 31.6124 48.296C31.6124 47.611 31.4149 47.0804 31.0199 46.7041C30.6249 46.3279 30.0613 46.1397 29.3292 46.1397C28.7607 46.1397 28.2501 46.2796 27.7973 46.5594C27.3446 46.8295 26.9881 47.2106 26.728 47.7027C26.4679 48.1947 26.3378 48.7543 26.3378 49.3814C26.3378 50.0568 26.5353 50.5874 26.9303 50.9733C27.3349 51.3496 27.8985 51.5378 28.6211 51.5378Z" fill="white"/>
<path d="M36.7536 46.1397C37.0908 45.7152 37.505 45.4065 37.9963 45.2135C38.4877 45.0206 39.085 44.9241 39.7883 44.9241L39.5282 46.27C39.4414 46.2603 39.321 46.2555 39.1669 46.2555C37.5773 46.2555 36.6139 47.1142 36.2767 48.8315L35.5108 52.6666H34.1235L35.6408 44.9964H36.9703L36.7536 46.1397Z" fill="white"/>
<path d="M45.2755 49.2657V49.3525C45.2755 50.0664 45.4778 50.6115 45.8824 50.9878C46.287 51.3544 46.894 51.5378 47.7032 51.5378C48.1753 51.5378 48.6184 51.4606 49.0327 51.3062C49.447 51.1422 49.7938 50.9251 50.0732 50.655L50.6657 51.6535C50.2899 52.0009 49.8323 52.271 49.2928 52.464C48.7533 52.6569 48.1849 52.7534 47.5876 52.7534C46.8362 52.7534 46.1859 52.6183 45.6367 52.3482C45.0876 52.078 44.6637 51.6921 44.365 51.1904C44.0664 50.6887 43.9171 50.1002 43.9171 49.4248C43.9171 48.5662 44.1001 47.7943 44.4662 47.1093C44.8419 46.4243 45.3573 45.8889 46.0125 45.503C46.6772 45.117 47.419 44.9241 48.2379 44.9241C49.2784 44.9241 50.1069 45.2232 50.7235 45.8213C51.3497 46.4099 51.6628 47.2155 51.6628 48.2381C51.6628 48.5469 51.6291 48.8894 51.5616 49.2657H45.2755ZM48.1801 46.0818C47.4961 46.0818 46.9084 46.2748 46.4171 46.6607C45.9258 47.0466 45.5934 47.5773 45.42 48.2526H50.3622C50.4007 47.5676 50.2177 47.037 49.8131 46.6607C49.4181 46.2748 48.8737 46.0818 48.1801 46.0818Z" fill="white"/>
<path d="M63.6618 44.9241C64.5289 44.9241 65.2033 45.146 65.685 45.5898C66.1763 46.0239 66.422 46.6462 66.422 47.4567C66.422 47.6786 66.3883 47.9825 66.3208 48.3684L65.4682 52.6666H64.0809L64.9335 48.3684C64.9817 48.0983 65.0058 47.8764 65.0058 47.7027C65.0058 47.201 64.8661 46.8199 64.5867 46.5594C64.3073 46.2989 63.8834 46.1687 63.315 46.1687C62.6021 46.1687 62.0144 46.3713 61.552 46.7765C61.0992 47.172 60.7909 47.7702 60.6271 48.571L59.8034 52.6666H58.4161L59.2832 48.3684C59.3314 48.1079 59.3554 47.8908 59.3554 47.7172C59.3554 47.2155 59.2109 46.8344 58.9219 46.5739C58.6425 46.3037 58.2186 46.1687 57.6502 46.1687C56.9373 46.1687 56.3496 46.3713 55.8872 46.7765C55.4344 47.1817 55.1261 47.7943 54.9623 48.6144L54.1531 52.6666H52.7658L54.2832 44.9964H55.6126L55.4248 45.9516C56.0992 45.2666 56.9855 44.9241 58.0838 44.9241C58.6811 44.9241 59.1917 45.0399 59.6156 45.2714C60.0395 45.503 60.3477 45.8406 60.5404 46.2844C61.3208 45.3775 62.3612 44.9241 63.6618 44.9241Z" fill="white"/>
<path d="M73.3966 44.9241C74.0517 44.9241 74.6346 45.0591 75.1452 45.3293C75.6558 45.5898 76.0556 45.9709 76.3446 46.4726C76.6336 46.9646 76.7781 47.5483 76.7781 48.2237C76.7781 49.092 76.5903 49.8687 76.2145 50.5537C75.8388 51.2387 75.3186 51.779 74.6538 52.1745C73.9987 52.5604 73.2617 52.7534 72.4428 52.7534C71.7877 52.7534 71.2241 52.6376 70.7521 52.4061C70.28 52.1649 69.9187 51.8175 69.6682 51.3641L68.859 55.4741H67.4717L69.5526 44.9964H70.8821L70.6943 45.9516C71.4072 45.2666 72.308 44.9241 73.3966 44.9241ZM72.385 51.5378C72.9534 51.5378 73.464 51.4027 73.9168 51.1325C74.3696 50.8527 74.7261 50.4668 74.9862 49.9748C75.2463 49.4827 75.3764 48.9232 75.3764 48.296C75.3764 47.611 75.1789 47.0804 74.7839 46.7041C74.3889 46.3279 73.8253 46.1397 73.0931 46.1397C72.5247 46.1397 72.0093 46.2796 71.5469 46.5594C71.0941 46.8295 70.7376 47.2106 70.4775 47.7027C70.227 48.1947 70.1018 48.7543 70.1018 49.3814C70.1018 50.0568 70.2993 50.5874 70.6943 50.9733C71.0989 51.3496 71.6625 51.5378 72.385 51.5378Z" fill="white"/>
<path d="M80.0244 41.9284H81.4117L79.2729 52.6666H77.8857L80.0244 41.9284Z" fill="white"/>
<path d="M85.5056 52.7534C84.7831 52.7534 84.152 52.6183 83.6125 52.3482C83.073 52.0684 82.6539 51.6776 82.3553 51.176C82.0566 50.6743 81.9073 50.0954 81.9073 49.4393C81.9073 48.5807 82.1 47.8088 82.4854 47.1238C82.8707 46.4388 83.4054 45.9033 84.0894 45.5174C84.7734 45.1219 85.5441 44.9241 86.4016 44.9241C87.1241 44.9241 87.7551 45.0591 88.2946 45.3293C88.8341 45.5994 89.2484 45.9854 89.5374 46.487C89.8361 46.9791 89.9854 47.558 89.9854 48.2237C89.9854 49.0823 89.7927 49.859 89.4074 50.5537C89.022 51.2387 88.4873 51.779 87.8033 52.1745C87.1289 52.5604 86.363 52.7534 85.5056 52.7534ZM85.5923 51.5378C86.1607 51.5378 86.6713 51.4027 87.1241 51.1325C87.5865 50.8527 87.943 50.4668 88.1935 49.9748C88.4536 49.4827 88.5837 48.9232 88.5837 48.296C88.5837 47.611 88.3862 47.0804 87.9912 46.7041C87.5962 46.3279 87.0326 46.1397 86.3004 46.1397C85.732 46.1397 85.2214 46.2796 84.7686 46.5594C84.3158 46.8295 83.9594 47.2106 83.6992 47.7027C83.4391 48.1947 83.3091 48.7543 83.3091 49.3814C83.3091 50.0568 83.5066 50.5874 83.9015 50.9733C84.3062 51.3496 84.8698 51.5378 85.5923 51.5378Z" fill="white"/>
<path d="M99.1779 44.9964L93.7444 53.5059C93.253 54.2778 92.7858 54.8132 92.3426 55.1123C91.8994 55.4114 91.3744 55.561 90.7674 55.561C90.3917 55.561 90.0256 55.4982 89.6692 55.3728C89.3127 55.257 89.0381 55.093 88.8455 54.8808L89.568 53.8533C89.9148 54.2006 90.3484 54.3743 90.8686 54.3743C91.1962 54.3743 91.4852 54.2874 91.7357 54.1138C91.9862 53.9401 92.2463 53.6458 92.516 53.231L92.9062 52.6231L91.0565 44.9964H92.4438L93.9178 51.1325L97.7762 44.9964H99.1779Z" fill="white"/>
<path d="M100.088 49.2657V49.3525C100.088 50.0664 100.29 50.6115 100.694 50.9878C101.099 51.3544 101.706 51.5378 102.515 51.5378C102.987 51.5378 103.431 51.4606 103.845 51.3062C104.259 51.1422 104.606 50.9251 104.885 50.655L105.478 51.6535C105.102 52.0009 104.644 52.271 104.105 52.464C103.565 52.6569 102.997 52.7534 102.4 52.7534C101.648 52.7534 100.998 52.6183 100.449 52.3482C99.8997 52.078 99.4758 51.6921 99.1771 51.1904C98.8785 50.6887 98.7291 50.1002 98.7291 49.4248C98.7291 48.5662 98.9122 47.7943 99.2783 47.1093C99.654 46.4243 100.169 45.8889 100.825 45.503C101.489 45.117 102.231 44.9241 103.05 44.9241C104.09 44.9241 104.919 45.2232 105.536 45.8213C106.162 46.4099 106.475 47.2155 106.475 48.2381C106.475 48.5469 106.441 48.8894 106.374 49.2657H100.088ZM102.992 46.0818C102.308 46.0818 101.72 46.2748 101.229 46.6607C100.738 47.0466 100.405 47.5773 100.232 48.2526H105.174C105.213 47.5676 105.03 47.037 104.625 46.6607C104.23 46.2748 103.686 46.0818 102.992 46.0818Z" fill="white"/>
<path d="M110.208 46.1397C110.545 45.7152 110.959 45.4065 111.451 45.2135C111.942 45.0206 112.539 44.9241 113.243 44.9241L112.983 46.27C112.896 46.2603 112.775 46.2555 112.621 46.2555C111.032 46.2555 110.068 47.1142 109.731 48.8315L108.965 52.6666H107.578L109.095 44.9964H110.425L110.208 46.1397Z" fill="white"/>
<path d="M115.876 52.7534C115.24 52.7534 114.633 52.6714 114.055 52.5074C113.487 52.3434 113.044 52.1311 112.726 51.8706L113.347 50.7707C113.646 51.0119 114.031 51.2049 114.503 51.3496C114.985 51.4847 115.486 51.5522 116.006 51.5522C116.661 51.5522 117.157 51.4557 117.495 51.2628C117.841 51.0602 118.015 50.7804 118.015 50.4234C118.015 50.134 117.875 49.9265 117.596 49.8011C117.326 49.6757 116.902 49.5503 116.324 49.4248C115.784 49.3091 115.341 49.1933 114.995 49.0775C114.657 48.9521 114.368 48.7591 114.127 48.4986C113.887 48.2285 113.766 47.8667 113.766 47.4132C113.766 46.9116 113.906 46.4726 114.185 46.0963C114.474 45.72 114.879 45.4306 115.399 45.228C115.929 45.0254 116.541 44.9241 117.234 44.9241C117.745 44.9241 118.241 44.9868 118.723 45.1122C119.205 45.2376 119.6 45.4065 119.908 45.6187L119.359 46.7186C119.06 46.516 118.713 46.3664 118.318 46.27C117.923 46.1638 117.519 46.1108 117.104 46.1108C116.478 46.1108 115.996 46.2169 115.659 46.4292C115.322 46.6318 115.153 46.9067 115.153 47.2541C115.153 47.5628 115.293 47.7847 115.573 47.9198C115.852 48.0452 116.285 48.1706 116.873 48.296C117.403 48.4118 117.837 48.5276 118.174 48.6434C118.511 48.7591 118.795 48.9473 119.026 49.2078C119.267 49.4683 119.388 49.8204 119.388 50.2642C119.388 51.0457 119.065 51.6584 118.419 52.1022C117.784 52.5363 116.936 52.7534 115.876 52.7534Z" fill="white"/>
<path d="M17.6453 18.068C17.0308 18.1443 16.3424 18.1835 15.5801 18.1855C14.8377 18.162 13.9061 18.1041 12.7855 18.0118L12.1939 24.9932L17.1781 24.3744L16.945 26.9721L11.9608 27.5909L10.7869 40.7888L5.87094 41.3991L7.95987 17.9513C6.39797 18.2146 5.33479 18.9599 4.77034 20.1871C4.22864 21.4114 4.1045 23.2088 4.39792 25.5792C4.45152 26.0122 4.52083 26.3854 4.60585 26.6989C4.71362 27.0095 4.85413 27.3045 5.02736 27.5838C5.08416 27.6693 5.11538 27.7349 5.12103 27.7805C5.14661 27.8004 5.16081 27.8218 5.16363 27.8446C3.88913 28.0028 2.92357 27.8566 2.26695 27.4058C1.63027 26.9294 1.24139 26.1215 1.10032 24.9819C0.764583 22.2696 1.51074 19.9901 3.33878 18.1432C5.18677 16.2706 7.95423 15.1055 11.6412 14.6478C11.846 14.6224 12.0978 14.6027 12.3964 14.5888C12.6951 14.5748 13.1901 14.5597 13.8813 14.5433C14.803 14.5214 15.5056 14.5036 15.9891 14.4899C16.4927 14.4505 16.9493 14.4054 17.3589 14.3545C17.9734 14.2782 18.5268 14.1748 19.019 14.0443C19.5112 13.9138 19.9651 13.7533 20.3806 13.5628C20.3635 13.6113 20.3048 13.9772 20.2045 14.6608C20.1043 15.3444 19.953 15.8954 19.7506 16.314C19.5482 16.7325 19.2691 17.0912 18.9132 17.3899C18.5773 17.663 18.1546 17.8891 17.6453 18.068Z" fill="#C6E3E8"/>
<path d="M24.289 17.1391C24.3821 17.8912 24.188 18.5633 23.7067 19.1553C23.2481 19.7445 22.6433 20.0857 21.8923 20.179C21.1412 20.2722 20.4715 20.0892 19.8832 19.63C19.2949 19.1708 18.9541 18.5651 18.861 17.8129C18.7679 17.0608 18.9507 16.3901 19.4092 15.8009C19.865 15.189 20.4684 14.8363 21.2194 14.7431C21.9704 14.6499 22.6415 14.8442 23.2327 15.3263C23.8438 15.7827 24.1959 16.3869 24.289 17.1391ZM17.7802 35.9633C17.7435 35.667 17.7253 35.3337 17.7257 34.9634C17.7233 34.5703 17.7408 34.1515 17.7782 33.7072L18.7411 22.4447L23.657 21.8344L22.638 33.7634C22.6178 33.9742 22.6077 34.1722 22.6075 34.3573C22.6045 34.5197 22.6143 34.692 22.6368 34.8744C22.6933 35.3302 22.8366 35.648 23.0668 35.8277C23.317 35.9818 23.6924 36.0277 24.1931 35.9656C24.8303 35.8864 25.3996 35.5381 25.9009 34.9204C26.3993 34.28 26.73 33.4984 26.8931 32.5756L28.3269 32.3976C27.8554 34.5621 27.0714 36.2562 25.9751 37.48C24.8787 38.7038 23.5339 39.4146 21.9408 39.6124C20.8029 39.7536 19.8602 39.512 19.1127 38.8873C18.3852 38.2371 17.941 37.2624 17.7802 35.9633Z" fill="#C6E3E8"/>
<path d="M35.2131 34.042C35.1623 33.6318 35.1444 33.1133 35.1592 32.4866C35.1969 31.8571 35.2918 30.8502 35.4439 29.466C35.6017 28.1273 35.6909 27.1674 35.7114 26.5863C35.7319 26.0052 35.7182 25.5209 35.6702 25.1334C35.5997 24.5636 35.4436 24.1433 35.2021 23.8724C34.9606 23.6016 34.635 23.4916 34.2254 23.5424C33.6792 23.6102 33.2024 23.9587 32.795 24.5878C32.4075 25.1914 32.1265 26.0015 31.9519 27.0183L30.989 38.2808L26.0731 38.8911L27.5757 21.3479L32.4917 20.7376L32.3362 22.562C32.8262 21.8532 33.3814 21.2983 34.0019 20.8972C34.6224 20.4962 35.3196 20.2477 36.0934 20.1516C37.2996 20.0019 38.2736 20.2165 39.0155 20.7955C39.7573 21.3746 40.2058 22.2908 40.361 23.5444C40.4259 24.0686 40.4352 24.7039 40.3889 25.4502C40.3626 26.1708 40.259 27.2945 40.0783 28.8212C39.9263 30.0203 39.8344 30.8648 39.8026 31.3548C39.7708 31.8447 39.7747 32.2492 39.8142 32.5683C39.8734 33.0469 40.0324 33.3975 40.291 33.6199C40.5468 33.8196 40.9023 33.8912 41.3575 33.8347C41.9264 33.764 42.3918 33.5096 42.7535 33.0712C43.1152 32.6329 43.4816 31.7659 43.8527 30.4701L45.2865 30.2921C44.8206 32.5022 44.1291 34.1964 43.2119 35.3748C42.3176 36.5504 41.1535 37.2272 39.7197 37.4052C38.4452 37.5634 37.4128 37.3444 36.6227 36.7483C35.8297 36.1293 35.3598 35.2272 35.2131 34.042Z" fill="#C6E3E8"/>
<path d="M48.5663 30.2321C48.6764 31.121 48.8848 31.7778 49.1915 32.2025C49.4955 32.6045 49.9661 32.7659 50.6033 32.6868C51.1723 32.6162 51.6975 32.2849 52.1788 31.6928C52.6573 31.078 52.9482 30.3476 53.0514 29.5017L53.0303 29.3308L53.7339 21.2941C53.6205 20.9379 53.4259 20.6728 53.1502 20.4987C52.8944 20.299 52.573 20.2232 52.1861 20.2713C50.9344 20.4267 49.949 21.6135 49.2299 23.8319C48.5336 26.0474 48.3124 28.1808 48.5663 30.2321ZM53.8465 19.6833L53.8634 19.82L54.5628 11.7492L59.5307 10.4382L57.89 29.387C57.8699 29.5978 57.8598 29.7957 57.8596 29.9809C57.8566 30.1433 57.8663 30.3156 57.8889 30.498C57.9453 30.9538 58.0887 31.2716 58.3189 31.4513C58.569 31.6053 58.9445 31.6513 59.4452 31.5891C60.0369 31.5157 60.5393 31.1872 60.9523 30.6036C61.3654 30.0201 61.6606 29.2313 61.838 28.2373L63.2718 28.0593C62.8173 30.1754 62.0846 31.8169 61.0737 32.9838C60.0854 34.1479 58.7834 34.8302 57.1675 35.0308C56.2344 35.1467 55.4409 34.9906 54.7871 34.5626C54.1533 34.1091 53.7102 33.4235 53.458 32.506C52.905 33.6392 52.2399 34.5202 51.4627 35.1489C50.6855 35.7777 49.7963 36.1542 48.7949 36.2785C47.3838 36.4537 46.2094 36.1135 45.2716 35.258C44.3565 34.3996 43.7904 33.0929 43.5731 31.338C43.4151 30.0616 43.4435 28.7043 43.6583 27.2659C43.8731 25.8276 44.2514 24.4962 44.7931 23.2719C45.4687 21.8226 46.3204 20.6755 47.3481 19.8305C48.373 18.9627 49.5454 18.4469 50.8655 18.283C51.753 18.1728 52.4556 18.2476 52.973 18.5073C53.4876 18.7443 53.7788 19.1363 53.8465 19.6833Z" fill="#C6E3E8"/>
<path d="M66.919 16.8107C66.7779 15.6711 67.0124 14.4849 67.6224 13.2521C68.2551 12.0164 69.1978 10.858 70.4505 9.77677C71.5181 8.88054 72.6865 8.14536 73.9557 7.57123C75.2449 6.97148 76.5267 6.5925 77.8012 6.43427L79.1668 6.26475L77.0507 31.1738C76.8059 34.2359 76.0483 36.5168 74.7782 38.0168C73.508 39.5167 71.6212 40.4221 69.1177 40.7329C67.5473 40.9278 66.2533 40.6488 65.2358 39.8957C64.241 39.1398 63.6519 38.0211 63.4685 36.5396C63.3077 35.2405 63.5606 34.1099 64.2271 33.1477C64.8909 32.1627 65.8373 31.594 67.0663 31.4414C68.2953 31.2888 69.1841 31.3752 69.7327 31.7005C70.2786 32.003 70.5994 32.5417 70.6954 33.3167C70.7179 33.499 70.7206 33.7069 70.7033 33.9405C70.7116 34.1941 70.6971 34.4504 70.6598 34.7096C70.2334 34.4385 69.8638 34.253 69.551 34.153C69.2382 34.053 68.8884 34.027 68.5015 34.075C67.796 34.1626 67.2452 34.474 66.8493 35.0091C66.4761 35.5414 66.3347 36.1722 66.425 36.9016C66.5153 37.6309 66.8034 38.1853 67.2894 38.5646C67.7982 38.9412 68.3826 39.0885 69.0426 39.0065C69.9302 38.8963 70.5621 38.4939 70.9383 37.7992C71.34 37.1245 71.6157 35.991 71.7652 34.3988L74.1033 9.32329C72.6347 10.1536 71.5597 11.2706 70.8785 12.6743C70.2172 14.0523 69.9965 15.6302 70.2166 17.408C70.2702 17.8411 70.3395 18.2143 70.4245 18.5277C70.5323 18.8383 70.6728 19.1333 70.846 19.4127C70.9028 19.4982 70.9341 19.5637 70.9397 19.6093C70.9653 19.6293 70.9795 19.6507 70.9823 19.6734C69.7078 19.8317 68.7423 19.6854 68.0856 19.2347C67.4489 18.7583 67.0601 17.9503 66.919 16.8107Z" fill="#C6E3E8"/>
<path d="M79.7818 26.8775C79.621 25.5783 79.6552 24.174 79.8843 22.6645C80.1361 21.1521 80.5556 19.7809 81.1429 18.5509C81.8185 17.1016 82.7057 15.9617 83.8045 15.131C84.9005 14.2775 86.1768 13.7604 87.6334 13.5795C89.0899 13.3987 90.2388 13.7189 91.0799 14.5402C91.9211 15.3615 92.4545 16.6838 92.6802 18.5071C92.7285 18.5243 92.7769 18.5414 92.8252 18.5585C92.8935 18.5501 92.9731 18.5402 93.0642 18.5289C93.7697 18.4413 94.5878 18.143 95.5185 17.6341C96.4491 17.1251 97.2988 16.5221 98.0676 15.8249L98.4891 16.7099C97.9365 17.4727 97.1564 18.1713 96.1488 18.8055C95.1639 19.4369 94.0469 19.9342 92.7978 20.2976C92.9056 23.4084 92.3256 26.0029 91.0576 28.0811C89.7897 30.1593 88.0747 31.3326 85.9126 31.6011C84.1374 31.8214 82.7268 31.5337 81.6809 30.7379C80.6349 29.9421 80.0019 28.6552 79.7818 26.8775ZM88.1646 15.6311C87.0722 15.7667 86.1735 17.0007 85.4685 19.333C84.7863 21.6625 84.568 23.8187 84.8134 25.8016C84.946 26.8728 85.1501 27.588 85.4257 27.9472C85.724 28.3036 86.2145 28.4394 86.8973 28.3546C87.7394 28.2501 88.4513 27.4674 89.033 26.0067C89.6376 24.5431 89.9522 22.7915 89.9771 20.7519C89.65 20.7231 89.3927 20.6046 89.2051 20.3965C89.0376 20.1627 88.9284 19.8407 88.8776 19.4305C88.824 18.9974 88.8685 18.6101 89.011 18.2684C89.1536 17.9267 89.3857 17.6549 89.7073 17.4529C89.5715 16.7292 89.3829 16.232 89.1414 15.9611C88.9226 15.6874 88.597 15.5774 88.1646 15.6311Z" fill="#C6E3E8"/>
<path d="M101.046 29.7917C99.5214 29.981 98.2914 29.7519 97.3562 29.1043C96.4409 28.4311 95.8973 27.3993 95.7252 26.009C95.6857 25.6899 95.6689 25.368 95.6749 25.0433C95.681 24.7185 95.697 24.381 95.7229 24.0306L97.2555 6.44903L102.223 5.13802L101.537 13.0337C102.041 12.624 102.489 12.3254 102.882 12.1378C103.294 11.9245 103.74 11.7883 104.218 11.7289C105.56 11.5622 106.623 11.9279 107.404 12.8261C108.205 13.6986 108.727 15.1149 108.97 17.075C109.136 18.4197 109.102 19.824 108.867 21.288C108.633 22.7519 108.216 24.0533 107.617 25.1922C106.928 26.5275 106.031 27.5877 104.926 28.3728C103.819 29.1351 102.526 29.608 101.046 29.7917ZM100.543 24.8901C100.608 25.4143 100.806 25.7948 101.135 26.0316C101.485 26.2428 101.956 26.3116 102.547 26.2381C103.572 26.111 104.382 25.0963 104.978 23.194C105.575 21.2917 105.75 19.3492 105.505 17.3663C105.386 16.409 105.118 15.6439 104.701 15.0709C104.306 14.495 103.835 14.241 103.289 14.3088C102.925 14.3541 102.545 14.4591 102.15 14.6239C101.754 14.7887 101.488 14.9722 101.351 15.1743L100.549 24.0911C100.543 24.2307 100.537 24.3702 100.531 24.5098C100.525 24.6494 100.529 24.7762 100.543 24.8901Z" fill="#C6E3E8"/>
<path d="M121.662 21.2269C121.696 21.5004 121.714 21.7412 121.717 21.9491C121.719 22.1571 121.709 22.355 121.686 22.543C122.108 22.213 122.516 21.873 122.912 21.523C123.308 21.1731 123.648 20.8415 123.933 20.5285L125.366 20.3505C124.762 21.2586 124.072 22.1196 123.294 22.9335C122.537 23.7218 121.663 24.5014 120.672 25.2724C120.14 26.0097 119.418 26.6199 118.507 27.1033C117.594 27.5638 116.613 27.8591 115.566 27.9891C114.042 28.1784 112.773 27.9193 111.761 27.2118C110.769 26.4787 110.196 25.4853 110.041 24.2318C109.953 23.5252 110.045 22.8659 110.316 22.2537C110.584 21.6187 110.964 21.1434 111.456 20.8277C112.058 19.3413 112.592 17.7709 113.057 16.1163C113.542 14.4361 113.991 12.4596 114.403 10.1868L119.371 8.8758C119.65 10.5767 119.923 12.1281 120.189 13.5299C120.455 14.9317 120.759 16.456 121.102 18.1028C121.289 19.0516 121.417 19.7183 121.488 20.103C121.559 20.4876 121.617 20.8623 121.662 21.2269ZM115.065 13.8537C114.884 14.8249 114.642 15.8501 114.336 16.9294C114.051 17.9831 113.638 19.2261 113.099 20.6585C113.364 20.7413 113.577 20.8769 113.739 21.065C113.901 21.2532 113.999 21.484 114.033 21.7576C114.086 22.1906 113.986 22.5964 113.733 22.975C113.479 23.3536 113.147 23.5684 112.738 23.6192C112.51 23.6475 112.313 23.6373 112.145 23.5887C111.974 23.5173 111.846 23.4175 111.761 23.2892C111.865 24.1325 112.101 24.7281 112.468 25.076C112.854 25.3983 113.411 25.5143 114.14 25.4238C115.073 25.308 115.767 24.9441 116.223 24.3321C116.679 23.7201 116.843 22.9013 116.716 21.8757C116.677 21.5566 116.626 21.2389 116.564 20.9226C116.498 20.5836 116.384 20.0308 116.22 19.2644C115.973 18.2073 115.765 17.2727 115.595 16.4607C115.425 15.6487 115.249 14.7797 115.065 13.8537Z" fill="#C6E3E8"/>
</svg>
