<svg width="130" height="39" viewBox="0 0 130 39" fill="none" xmlns="http://www.w3.org/2000/svg">
<path d="M17.4142 13.964C16.773 14.0435 16.0546 14.0843 15.259 14.0864C14.4843 14.0619 13.5122 14.0015 12.3427 13.9054L11.7253 21.1804L16.9267 20.5356L16.6835 23.2426L11.4821 23.8874L10.2569 37.6405L5.12678 38.2765L7.30675 13.8424C5.67679 14.1168 4.56728 14.8934 3.97822 16.1722C3.41291 17.448 3.28336 19.321 3.58957 21.7911C3.64551 22.2423 3.71784 22.6313 3.80656 22.9579C3.91904 23.2816 4.06566 23.589 4.24644 23.8801C4.30572 23.9692 4.3383 24.0375 4.34419 24.085C4.37089 24.1058 4.38571 24.1281 4.38865 24.1518C3.05861 24.3167 2.05098 24.1643 1.36574 23.6946C0.70131 23.1982 0.295488 22.3562 0.148273 21.1687C-0.202097 18.3423 0.576573 15.9669 2.48428 14.0423C4.4128 12.091 7.30086 10.8769 11.1485 10.3999C11.3622 10.3734 11.625 10.3529 11.9367 10.3383C12.2484 10.3238 12.7649 10.308 13.4862 10.2909C14.4481 10.2682 15.1813 10.2496 15.6859 10.2353C16.2114 10.1943 16.6879 10.1473 17.1154 10.0943C17.7567 10.0148 18.3341 9.90701 18.8478 9.77098C19.3615 9.63495 19.8351 9.46772 20.2687 9.26927C20.2509 9.31972 20.1896 9.7011 20.085 10.4134C19.9804 11.1258 19.8225 11.7 19.6113 12.1361C19.4001 12.5723 19.1088 12.946 18.7374 13.2573C18.3868 13.5419 17.9458 13.7775 17.4142 13.964Z" fill="#C6E3E8"/>
<path d="M24.3475 12.9959C24.4447 13.7797 24.2421 14.4801 23.7398 15.097C23.2613 15.711 22.6301 16.0666 21.8463 16.1637C21.0625 16.2609 20.3637 16.0702 19.7497 15.5916C19.1357 15.1131 18.7801 14.4819 18.683 13.6982C18.5858 12.9144 18.7765 12.2155 19.255 11.6015C19.7306 10.9638 20.3603 10.5963 21.1441 10.4992C21.9279 10.402 22.6282 10.6046 23.2452 11.1069C23.8829 11.5825 24.2503 12.2122 24.3475 12.9959ZM17.555 32.612C17.5167 32.3033 17.4978 31.9559 17.4982 31.5701C17.4956 31.1604 17.5139 30.7241 17.5529 30.261L18.5578 18.5247L23.688 17.8888L22.6245 30.3196C22.6035 30.5393 22.5929 30.7456 22.5927 30.9385C22.5896 31.1077 22.5998 31.2873 22.6233 31.4773C22.6822 31.9523 22.8318 32.2835 23.072 32.4707C23.3331 32.6313 23.7249 32.6792 24.2474 32.6144C24.9124 32.532 25.5065 32.1689 26.0296 31.5253C26.5497 30.8579 26.8949 30.0434 27.0651 29.0818L28.5614 28.8963C28.0693 31.1519 27.2512 32.9173 26.107 34.1925C24.9629 35.4678 23.5595 36.2085 21.897 36.4146C20.7094 36.5618 19.7256 36.31 18.9456 35.6591C18.1864 34.9815 17.7228 33.9658 17.555 32.612Z" fill="#C6E3E8"/>
<path d="M35.7477 30.61C35.6947 30.1825 35.6759 29.6422 35.6914 28.9891C35.7307 28.3331 35.8297 27.2839 35.9885 25.8414C36.1532 24.4464 36.2462 23.4461 36.2676 22.8406C36.289 22.235 36.2747 21.7304 36.2246 21.3266C36.151 20.7328 35.9882 20.2948 35.7362 20.0126C35.4842 19.7303 35.1444 19.6157 34.7169 19.6687C34.1469 19.7393 33.6493 20.1025 33.2241 20.7581C32.8198 21.387 32.5265 22.2312 32.3444 23.2907L31.3395 35.027L26.2093 35.663L27.7775 17.3818L32.9076 16.7459L32.7454 18.647C33.2567 17.9084 33.8361 17.3301 34.4837 16.9122C35.1312 16.4943 35.8588 16.2353 36.6663 16.1352C37.9251 15.9792 38.9416 16.2028 39.7157 16.8062C40.4899 17.4096 40.9579 18.3644 41.1198 19.6707C41.1876 20.217 41.1973 20.879 41.149 21.6567C41.1215 22.4076 41.0135 23.5786 40.8248 25.1695C40.6662 26.4191 40.5703 27.2991 40.5372 27.8096C40.504 28.3202 40.508 28.7417 40.5492 29.0742C40.6111 29.573 40.7769 29.9383 41.0468 30.1701C41.3138 30.3782 41.6847 30.4527 42.1598 30.3939C42.7535 30.3203 43.2391 30.0551 43.6166 29.5983C43.9941 29.1416 44.3764 28.238 44.7637 26.8878L46.26 26.7023C45.7738 29.0053 45.0521 30.7708 44.095 31.9988C43.1617 33.2238 41.9469 33.9291 40.4506 34.1146C39.1206 34.2795 38.0432 34.0513 37.2186 33.43C36.3911 32.785 35.9008 31.845 35.7477 30.61Z" fill="#C6E3E8"/>
<path d="M49.6828 26.6397C49.7976 27.566 50.0151 28.2505 50.3352 28.6931C50.6524 29.112 51.1436 29.2802 51.8086 29.1977C52.4023 29.1241 52.9504 28.7789 53.4527 28.1619C53.952 27.5212 54.2556 26.7601 54.3633 25.8786L54.3413 25.7005L55.0756 17.3257C54.9572 16.9546 54.7541 16.6783 54.4664 16.4969C54.1994 16.2888 53.8641 16.2098 53.4603 16.2599C52.154 16.4218 51.1257 17.6586 50.3753 19.9703C49.6486 22.279 49.4178 24.5022 49.6828 26.6397ZM55.193 15.6472L55.2107 15.7897L55.9406 7.3793L61.1249 6.01314L59.4128 25.7591C59.3918 25.9787 59.3812 26.185 59.381 26.378C59.3779 26.5472 59.3881 26.7268 59.4116 26.9168C59.4705 27.3918 59.6201 27.7229 59.8603 27.9102C60.1214 28.0708 60.5132 28.1187 61.0357 28.0539C61.6532 27.9773 62.1775 27.635 62.6086 27.0269C63.0396 26.4188 63.3477 25.5969 63.5328 24.5611L65.0291 24.3756C64.5548 26.5806 63.7902 28.2912 62.7352 29.5072C61.7039 30.7202 60.3451 31.4313 58.6588 31.6403C57.685 31.761 56.857 31.5984 56.1747 31.1525C55.5132 30.6798 55.0508 29.9654 54.7876 29.0093C54.2105 30.1902 53.5165 31.1082 52.7054 31.7634C51.8943 32.4186 50.9663 32.811 49.9213 32.9405C48.4487 33.1231 47.2231 32.7686 46.2444 31.877C45.2895 30.9826 44.6987 29.6209 44.472 27.7921C44.3071 26.4621 44.3367 25.0476 44.5609 23.5488C44.785 22.05 45.1798 20.6626 45.7451 19.3867C46.4501 17.8765 47.3389 16.6811 48.4114 15.8006C49.481 14.8963 50.7046 14.3588 52.0821 14.188C53.0084 14.0732 53.7415 14.1511 54.2815 14.4218C54.8185 14.6687 55.1224 15.0772 55.193 15.6472Z" fill="#C6E3E8"/>
<path d="M68.8352 12.6538C68.688 11.4662 68.9327 10.2301 69.5693 8.94542C70.2296 7.65778 71.2134 6.45061 72.5206 5.32393C73.6347 4.39 74.8541 3.62389 76.1786 3.02561C77.524 2.40064 78.8617 2.00571 80.1917 1.84083L81.6167 1.66417L79.4085 27.6211C79.1529 30.8119 78.3624 33.1889 77.0369 34.7519C75.7114 36.3149 73.7423 37.2584 71.1297 37.5823C69.4909 37.7854 68.1406 37.4946 67.0787 36.7099C66.0405 35.9222 65.4257 34.7564 65.2344 33.2126C65.0665 31.8588 65.3304 30.6806 66.0261 29.678C66.7188 28.6516 67.7064 28.0589 68.9889 27.8999C70.2715 27.7409 71.199 27.8309 71.7716 28.1699C72.3412 28.4852 72.6761 29.0465 72.7762 29.8541C72.7997 30.0441 72.8025 30.2608 72.7844 30.5042C72.7931 30.7684 72.7779 31.0355 72.7391 31.3056C72.2941 31.0231 71.9084 30.8298 71.582 30.7256C71.2555 30.6214 70.8905 30.5943 70.4867 30.6443C69.7504 30.7356 69.1757 31.0601 68.7625 31.6177C68.3731 32.1724 68.2255 32.8298 68.3197 33.5898C68.4139 34.3498 68.7146 34.9275 69.2218 35.3228C69.7528 35.7152 70.3626 35.8687 71.0514 35.7833C71.9777 35.6685 72.6371 35.2491 73.0297 34.5252C73.4489 33.8221 73.7366 32.6409 73.8927 30.9817L76.3326 4.85137C74.8 5.7166 73.6782 6.88058 72.9673 8.34331C72.2771 9.77934 72.0469 11.4236 72.2765 13.2762C72.3325 13.7275 72.4048 14.1164 72.4935 14.443C72.606 14.7667 72.7526 15.0741 72.9334 15.3652C72.9927 15.4543 73.0253 15.5226 73.0312 15.5701C73.0579 15.5909 73.0727 15.6132 73.0756 15.6369C71.7456 15.8018 70.7379 15.6494 70.0527 15.1797C69.3883 14.6833 68.9825 13.8413 68.8352 12.6538Z" fill="#C6E3E8"/>
<path d="M82.2586 23.144C82.0908 21.7902 82.1264 20.3268 82.3655 18.7538C82.6283 17.1778 83.0661 15.7489 83.6789 14.4672C84.384 12.9569 85.3099 11.769 86.4566 10.9034C87.6004 10.014 88.9323 9.47511 90.4523 9.28667C91.9723 9.09824 93.1713 9.43192 94.0491 10.2877C94.9269 11.1435 95.4835 12.5215 95.7191 14.4215C95.7695 14.4394 95.82 14.4573 95.8704 14.4751C95.9417 14.4663 96.0248 14.456 96.1198 14.4442C96.8561 14.3529 97.7098 14.0421 98.681 13.5117C99.6523 12.9814 100.539 12.353 101.341 11.6265L101.781 12.5487C101.204 13.3436 100.39 14.0716 99.3388 14.7325C98.311 15.3904 97.1454 15.9087 95.8418 16.2873C95.9543 19.529 95.349 22.2327 94.0258 24.3983C92.7026 26.5639 90.9129 27.7866 88.6566 28.0663C86.804 28.296 85.332 27.9961 84.2404 27.1668C83.1489 26.3375 82.4883 24.9966 82.2586 23.144ZM91.0067 11.4245C89.8667 11.5659 88.9288 12.8517 88.1931 15.2821C87.4812 17.7096 87.2533 19.9565 87.5095 22.0228C87.6479 23.1391 87.8608 23.8844 88.1484 24.2587C88.4597 24.6301 88.9716 24.7716 89.6841 24.6833C90.5629 24.5744 91.3059 23.7588 91.913 22.2366C92.5438 20.7114 92.8722 18.8862 92.8981 16.7608C92.5568 16.7307 92.2883 16.6073 92.0926 16.3904C91.9177 16.1468 91.8037 15.8112 91.7507 15.3837C91.6948 14.9325 91.7412 14.5288 91.89 14.1727C92.0388 13.8167 92.281 13.5334 92.6167 13.323C92.4749 12.5689 92.2781 12.0507 92.026 11.7684C91.7978 11.4832 91.458 11.3686 91.0067 11.4245Z" fill="#C6E3E8"/>
<path d="M104.45 26.1808C102.858 26.3781 101.575 26.1393 100.599 25.4645C99.6437 24.7629 99.0763 23.6878 98.8967 22.239C98.8555 21.9065 98.838 21.571 98.8443 21.2326C98.8506 20.8942 98.8673 20.5425 98.8944 20.1774L100.494 1.8562L105.678 0.490047L104.962 8.71789C105.488 8.29097 105.955 7.97976 106.365 7.78425C106.796 7.56206 107.261 7.42005 107.759 7.35822C109.161 7.1845 110.269 7.56559 111.084 8.50149C111.921 9.41069 112.465 10.8866 112.718 12.9291C112.892 14.3304 112.857 15.7938 112.612 17.3194C112.367 18.8449 111.932 20.2011 111.307 21.3878C110.587 22.7793 109.651 23.8841 108.499 24.7022C107.343 25.4966 105.993 25.9894 104.45 26.1808ZM103.925 21.0731C103.993 21.6193 104.199 22.0158 104.543 22.2626C104.908 22.4826 105.399 22.5543 106.016 22.4778C107.085 22.3453 107.931 21.2879 108.553 19.3056C109.176 17.3233 109.359 15.299 109.103 13.2327C108.979 12.2352 108.699 11.4378 108.263 10.8407C107.851 10.2407 107.36 9.97599 106.79 10.0467C106.41 10.0938 106.014 10.2032 105.601 10.3749C105.188 10.5467 104.911 10.7379 104.768 10.9485L103.93 20.2404C103.924 20.3859 103.918 20.5313 103.912 20.6767C103.906 20.8222 103.91 20.9543 103.925 21.0731Z" fill="#C6E3E8"/>
<path d="M125.964 17.2558C125.999 17.5408 126.018 17.7916 126.021 18.0083C126.024 18.225 126.013 18.4313 125.989 18.6272C126.429 18.2833 126.855 17.929 127.268 17.5643C127.681 17.1996 128.036 16.8542 128.333 16.5279L129.83 16.3424C129.199 17.2887 128.479 18.186 127.667 19.0341C126.877 19.8556 125.965 20.668 124.931 21.4714C124.375 22.2397 123.622 22.8756 122.672 23.3793C121.718 23.8592 120.695 24.1669 119.603 24.3024C118.011 24.4996 116.688 24.2296 115.632 23.4924C114.597 22.7284 113.998 21.6933 113.836 20.387C113.745 19.6508 113.84 18.9637 114.123 18.3257C114.403 17.664 114.8 17.1687 115.313 16.8397C115.941 15.2908 116.498 13.6543 116.984 11.9301C117.49 10.1792 117.958 8.1196 118.388 5.75121L123.573 4.38506C123.865 6.15752 124.149 7.77414 124.427 9.23491C124.704 10.6957 125.022 12.2841 125.379 14.0003C125.574 14.9889 125.709 15.6837 125.783 16.0845C125.856 16.4853 125.917 16.8758 125.964 17.2558ZM119.079 9.57232C118.891 10.5844 118.637 11.6528 118.319 12.7775C118.021 13.8755 117.59 15.1708 117.028 16.6634C117.304 16.7497 117.526 16.891 117.695 17.0871C117.864 17.2831 117.967 17.5237 118.002 17.8087C118.058 18.26 117.954 18.6829 117.689 19.0774C117.424 19.4719 117.078 19.6957 116.651 19.7487C116.413 19.7781 116.207 19.7675 116.032 19.7169C115.854 19.6425 115.72 19.5385 115.631 19.4048C115.74 20.2836 115.986 20.9042 116.369 21.2668C116.772 21.6026 117.354 21.7234 118.114 21.6292C119.088 21.5085 119.812 21.1293 120.288 20.4915C120.763 19.8538 120.935 19.0006 120.803 17.9318C120.761 17.5993 120.708 17.2682 120.643 16.9387C120.575 16.5853 120.456 16.0093 120.284 15.2107C120.027 14.1091 119.81 13.1352 119.633 12.289C119.455 11.4428 119.271 10.5373 119.079 9.57232Z" fill="#C6E3E8"/>
</svg>
